<?xml version="1.0" encoding="UTF-8" standalone="no"?>
<!-- Created with Inkscape (http://www.inkscape.org/) -->

<svg
   xmlns:dc="http://purl.org/dc/elements/1.1/"
   xmlns:cc="http://creativecommons.org/ns#"
   xmlns:rdf="http://www.w3.org/1999/02/22-rdf-syntax-ns#"
   xmlns:svg="http://www.w3.org/2000/svg"
   xmlns="http://www.w3.org/2000/svg"
   xmlns:sodipodi="http://sodipodi.sourceforge.net/DTD/sodipodi-0.dtd"
   xmlns:inkscape="http://www.inkscape.org/namespaces/inkscape"
   width="755mm"
   height="219mm"
   viewBox="0 0 755 219"
   version="1.1"
   id="svg4083"
   sodipodi:docname="name-logo.svg"
   inkscape:version="0.92.4 (5da689c313, 2019-01-14)">
  <defs
     id="defs4077" />
  <sodipodi:namedview
     id="base"
     pagecolor="#ffffff"
     bordercolor="#666666"
     borderopacity="1.0"
     inkscape:pageopacity="0.0"
     inkscape:pageshadow="2"
     inkscape:zoom="0.35"
     inkscape:cx="1428.5714"
     inkscape:cy="560"
     inkscape:document-units="mm"
     inkscape:current-layer="layer1"
     showgrid="false"
     inkscape:pagecheckerboard="true"
     inkscape:window-width="1366"
     inkscape:window-height="715"
     inkscape:window-x="-8"
     inkscape:window-y="-8"
     inkscape:window-maximized="1" />
  <metadata
     id="metadata4080">
    <rdf:RDF>
      <cc:Work
         rdf:about="">
        <dc:format>image/svg+xml</dc:format>
        <dc:type
           rdf:resource="http://purl.org/dc/dcmitype/StillImage" />
        <dc:title></dc:title>
      </cc:Work>
    </rdf:RDF>
  </metadata>
  <g
     inkscape:label="Layer 1"
     inkscape:groupmode="layer"
     id="layer1"
     transform="translate(0,-78)">
    <path
       style="fill:#fda401;stroke-width:0.75224942"
       d="m 131.688,250.03882 c -6.69139,-2.22873 -11.95348,-5.65781 -17.38376,-11.3283 -12.15232,-12.68994 -14.760046,-31.40351 -6.67835,-47.92535 0.89469,-1.8291 6.42178,-17.21501 12.28235,-34.19089 12.979,-37.59503 10.245,-34.22978 27.80907,-34.22978 10.69942,0 12.17319,0.15325 13.77782,1.43231 l 1.79681,1.43234 -6.75926,19.71099 c -3.7176,10.84107 -6.554,20.23355 -6.30311,20.87223 0.38952,0.99152 2.40606,1.16119 13.79961,1.16119 12.20248,0 13.34302,0.11114 13.33861,1.3011 -0.0111,2.72347 -4.64611,18.48532 -5.95895,20.25999 -2.69772,3.64665 -5.69519,4.45811 -16.48918,4.46389 -5.44199,0.002 -11.15024,0.346 -12.68497,0.76241 -2.51279,0.68173 -2.93724,1.18074 -4.26568,5.01435 -0.81138,2.34151 -2.89508,6.40022 -4.63046,9.01935 -4.33051,6.53586 -4.21849,8.27546 0.84065,13.05511 4.86205,4.59342 7.95947,5.60261 17.19591,5.60261 6.57316,0 7.00002,0.0976 8.19231,1.87516 1.19879,1.78725 1.1193,2.38001 -1.69497,12.63829 l -2.95279,10.76313 -9.1334,-0.0192 c -7.41055,-0.0137 -10.06997,-0.33019 -14.09826,-1.6719 z m 33.50674,0.91528 c 0,-2.26914 29.0684,-106.55496 30.15062,-108.16837 2.58692,-3.85667 3.90233,-4.06457 25.71626,-4.06457 11.95468,0 21.81272,0.33857 24.20328,0.83128 14.79034,3.04839 27.85212,15.7523 31.42774,30.56671 4.13363,17.12638 -3.50486,37.01716 -17.72883,46.16618 -9.70309,6.24109 -11.85583,6.72132 -31.5477,7.0371 -14.05925,0.22562 -17.31303,0.0917 -17.30272,-0.71249 0.005,-0.54463 1.17876,-5.1669 2.60398,-10.27174 2.24021,-8.02401 2.94223,-9.59568 5.18168,-11.60044 2.51471,-2.25118 2.84463,-2.32987 11.2943,-2.6941 10.10961,-0.43581 13.36446,-1.65015 17.70734,-6.60627 7.25279,-8.27695 4.51559,-20.01201 -5.93448,-25.44269 -2.72221,-1.41469 -4.30684,-1.60427 -13.484,-1.61319 -5.71957,-0.006 -10.60638,0.19096 -10.85957,0.43691 -0.25322,0.24598 -5.41476,18.41879 -11.47021,40.38428 -6.05546,21.9655 -11.57576,40.87303 -12.26741,42.01671 -2.40142,3.9711 -4.38736,4.51144 -16.58122,4.51144 -7.21578,0 -11.10906,-0.27213 -11.10906,-0.77675 z m 126.72607,-0.25066 c -4.91096,-1.53753 -7.54091,-3.13759 -10.60835,-6.4542 -4.74475,-5.13022 -6.14008,-8.93878 -6.11171,-16.68166 0.0197,-5.74688 0.33109,-7.34703 2.19617,-11.33629 2.48632,-5.318 7.15192,-9.92693 12.48739,-12.33563 3.35343,-1.51389 4.86874,-1.61967 26.26662,-1.83356 21.58729,-0.21571 22.68885,-0.16068 22.32228,1.11524 -0.21212,0.73819 -0.92006,3.21326 -1.57327,5.50007 -0.6532,2.28683 -1.90905,5.05369 -2.79071,6.14862 -2.97098,3.68948 -5.01096,4.19146 -17.03375,4.19146 -10.05918,0 -11.2135,0.1362 -12.59623,1.48695 -1.89962,1.85563 -1.95705,4.58958 -0.13035,6.2044 1.20644,1.06652 3.6244,1.23046 18.14885,1.23046 15.82896,0 16.8338,-0.0828 18.14414,-1.4973 1.35823,-1.46604 9.49414,-29.23322 9.50099,-32.42609 0.001,-0.87 -0.43953,-1.9409 -0.98093,-2.37979 -0.64762,-0.52504 -10.09695,-0.87409 -27.6256,-1.02041 -29.52092,-0.24653 -29.13034,-0.1827 -32.31295,-5.2813 -1.83257,-2.93591 -1.88261,-6.01685 -0.21097,-12.99785 l 1.29719,-5.41749 35.81705,0.21323 35.81706,0.21324 4.04827,2.1906 c 4.52375,2.4479 7.66436,5.61032 10.21258,10.28342 1.42413,2.61177 1.70406,4.26337 1.66615,9.83052 -0.0408,5.99369 -0.69628,9.01698 -6.2862,28.99591 -6.7634,24.17296 -7.74828,26.35928 -13.7224,30.46212 l -3.27799,2.2512 -29.80936,0.14886 c -22.5079,0.11226 -30.55509,-0.0847 -32.85385,-0.80439 z m 82.52889,-0.55514 c -1.04727,-1.9115 -1.52371,0.0649 11.35803,-47.11575 l 9.74369,-35.68726 20.87142,-0.20609 c 25.10047,-0.2479 29.32541,0.24682 37.90472,4.43825 15.02427,7.34015 23.33485,20.76693 23.15088,37.40306 -0.0735,6.6361 -0.57233,9.1889 -4.64445,23.7616 -3.51303,12.57203 -4.94919,16.6329 -6.24493,17.65776 -1.44025,1.13926 -3.23859,1.331 -12.48232,1.331 -11.49129,0 -12.62636,-0.3206 -12.62636,-3.56635 0,-0.98008 2.05502,-9.38513 4.56669,-18.67787 4.88177,-18.06154 5.32448,-21.78313 3.14674,-26.45404 -1.78304,-3.82434 -6.79854,-8.23218 -10.51374,-9.23993 -4.22419,-1.1458 -21.16026,-1.04287 -22.16073,0.13482 -0.43542,0.51248 -4.08841,12.97515 -8.11775,27.69482 -6.19078,22.61564 -7.62244,27.02221 -9.23848,28.43582 -1.79596,1.57098 -2.5803,1.67284 -12.87941,1.67284 -10.40874,0 -11.01113,-0.0806 -11.834,-1.58251 z m 123.92266,0.52174 c -5.55773,-1.9374 -10.66074,-6.85545 -13.21262,-12.73371 -2.47569,-5.70269 -1.76733,-11.57627 3.80587,-31.55809 2.79429,-10.01843 5.95403,-19.9778 7.02159,-22.13188 4.01005,-8.09111 13.07247,-14.66243 22.77699,-16.51599 3.0444,-0.58148 12.29611,-0.78729 28.13096,-0.62574 l 23.59463,0.24075 3.97042,2.04449 c 11.39168,5.86599 15.1645,15.50086 11.62221,29.68012 -2.189,8.76211 -4.02988,12.65057 -7.32827,15.47954 -5.09107,4.36646 -5.81876,4.46805 -32.00322,4.46805 -22.43371,0 -23.90932,-0.0814 -23.54699,-1.3011 0.21265,-0.7156 0.78532,-2.80667 1.27273,-4.64677 2.43025,-9.17498 3.82707,-9.93514 19.12596,-10.40879 13.33539,-0.4129 14.54221,-0.85681 15.53698,-5.7153 0.39428,-1.92579 0.11379,-2.72619 -1.51182,-4.31413 l -1.9959,-1.94966 -15.95978,0.22755 -15.95977,0.22754 -1.98207,1.93778 c -1.57608,1.54086 -2.75939,4.79603 -5.77698,15.89188 -4.14105,15.22683 -4.1586,17.10414 -0.1766,18.87639 1.30068,0.57891 11.21899,0.83994 31.91548,0.83994 23.52705,0 30.02354,0.20114 30.00624,0.92934 -0.0377,1.58701 -4.28992,15.80364 -5.25214,17.55994 -0.50152,0.91539 -2.00312,2.31435 -3.33691,3.10879 -2.30419,1.37242 -4.05643,1.44291 -35.15311,1.41454 -25.34988,-0.0221 -33.37184,-0.25424 -35.58379,-1.02538 z m 83.15364,0.89624 c 0,-0.42428 26.84415,-99.20918 28.61494,-105.30136 0.63633,-2.18913 1.97778,-4.78202 2.98098,-5.762 1.7506,-1.71005 2.25227,-1.78178 12.45991,-1.78178 8.65417,0 10.85874,0.21764 11.8319,1.16833 0.65784,0.64258 1.19606,1.67515 1.19606,2.2946 0,0.61946 -5.30653,20.36776 -11.79231,43.88518 -8.47089,30.71525 -12.46226,43.98663 -14.17077,47.11789 -4.92466,9.02551 -17.11056,17.33924 -26.85518,18.32166 -2.34603,0.23663 -4.26553,0.26249 -4.26553,0.0575 z"
       id="path3736"
       inkscape:connector-curvature="0" />
  </g>
</svg>
