<?xml version="1.0" encoding="UTF-8" standalone="no"?>
<!-- Created with Inkscape (http://www.inkscape.org/) -->

<svg
   xmlns:dc="http://purl.org/dc/elements/1.1/"
   xmlns:cc="http://creativecommons.org/ns#"
   xmlns:rdf="http://www.w3.org/1999/02/22-rdf-syntax-ns#"
   xmlns:svg="http://www.w3.org/2000/svg"
   xmlns="http://www.w3.org/2000/svg"
   xmlns:sodipodi="http://sodipodi.sourceforge.net/DTD/sodipodi-0.dtd"
   xmlns:inkscape="http://www.inkscape.org/namespaces/inkscape"
   width="755mm"
   height="219mm"
   viewBox="0 0 755 219"
   version="1.1"
   id="svg4083"
   sodipodi:docname="logo-white.svg"
   inkscape:version="0.92.4 (5da689c313, 2019-01-14)">
  <defs
     id="defs4077" />
  <sodipodi:namedview
     id="base"
     pagecolor="#ffffff"
     bordercolor="#666666"
     borderopacity="1.0"
     inkscape:pageopacity="0.0"
     inkscape:pageshadow="2"
     inkscape:zoom="0.35"
     inkscape:cx="1428.5714"
     inkscape:cy="560"
     inkscape:document-units="mm"
     inkscape:current-layer="layer1"
     showgrid="false"
     inkscape:pagecheckerboard="true"
     inkscape:window-width="1366"
     inkscape:window-height="715"
     inkscape:window-x="-8"
     inkscape:window-y="-8"
     inkscape:window-maximized="1" />
  <metadata
     id="metadata4080">
    <rdf:RDF>
      <cc:Work
         rdf:about="">
        <dc:format>image/svg+xml</dc:format>
        <dc:type
           rdf:resource="http://purl.org/dc/dcmitype/StillImage" />
        <dc:title></dc:title>
      </cc:Work>
    </rdf:RDF>
  </metadata>
  <g
     inkscape:label="Layer 1"
     inkscape:groupmode="layer"
     id="layer1"
     transform="translate(0,-78)">
    <path
       style="fill:#ffffff;stroke-width:0.52883643"
       d="m 113.09477,254.25177 c -5.73445,-0.66712 -12.45215,-3.44165 -17.438972,-7.20259 -17.452906,-13.16262 -23.530399,-34.22156 -15.738728,-54.53587 3.363486,-8.76917 7.082813,-19.38029 15.054025,-42.94855 8.336475,-24.64822 9.935925,-28.74307 12.345615,-31.60702 2.51379,-2.98757 3.75074,-3.24378 15.64582,-3.2405 10.91572,0.003 13.43618,0.33145 15.62364,2.03569 l 1.24097,0.96686 -5.81237,17.72768 c -6.8029,20.74895 -8.24515,25.91965 -7.45237,26.71831 0.342,0.34456 5.74145,0.67778 14.1034,0.87036 7.45209,0.17169 13.60859,0.35067 13.68106,0.39785 0.77545,0.50494 -1.14739,8.87336 -4.11423,17.90581 -2.79136,8.49807 -4.23774,9.20109 -20.14613,9.79207 -14.52782,0.53968 -14.64483,0.58509 -17.02881,6.60485 -0.92439,2.33416 -2.99849,6.51183 -4.60909,9.28365 -4.19458,7.21877 -4.20027,8.71216 -0.0503,13.22277 1.96387,2.13453 4.08678,3.7681 6.36082,4.89466 3.25581,1.61288 3.79069,1.7064 11.60246,2.02875 7.87566,0.32497 8.22728,0.38758 9.17941,1.63414 1.49063,1.95163 1.26225,3.99487 -1.7274,15.45648 l -2.74085,10.50775 -7.40741,-0.0726 c -4.07408,-0.0399 -8.83082,-0.23804 -10.57052,-0.44059 z"
       id="path3752"
       inkscape:connector-curvature="0" />
    <path
       style="fill:#ffffff;stroke-width:0.52883643"
       d="m 107.64396,216.80958 c -0.99816,-2.20452 -0.70057,-3.40893 2.28772,-9.25869 3.39791,-6.65166 3.74908,-6.37083 0.71483,0.57163 -1.52196,3.48224 -2.19241,5.76294 -2.21013,7.5184 -0.0148,1.38594 -0.0603,2.51987 -0.10297,2.51987 -0.0426,0 -0.3529,-0.60806 -0.6894,-1.35121 z"
       id="path3754"
       inkscape:connector-curvature="0" />
    <path
       style="fill:#ffffff;stroke-width:0.52883643"
       d="m 144.33037,254.40972 c -1.37726,-0.12824 -2.50412,-0.4298 -2.50412,-0.66981 0,-1.16163 11.45425,-44.34891 20.90341,-78.81446 11.03462,-40.24859 10.67648,-39.16646 13.5232,-40.85863 2.53497,-1.50686 17.64814,-2.14254 35.25346,-1.48282 13.31231,0.49887 14.70574,0.6433 18.35955,1.90286 5.93644,2.04647 10.77171,4.98423 15.41056,9.36299 6.62261,6.25126 11.21738,13.65202 13.36483,21.5267 1.32359,4.85362 1.58549,15.10757 0.52089,20.39465 -2.7065,13.44094 -9.78079,24.58825 -19.67769,31.00705 -9.37827,6.08245 -12.08832,6.67548 -32.33725,7.07614 -8.291,0.16396 -15.70448,0.13926 -16.47449,-0.0553 -1.85845,-0.46937 -1.82104,-0.99646 0.75014,-10.56675 2.45863,-9.15143 3.9482,-12.47485 6.45297,-14.39732 2.10524,-1.61583 2.77535,-1.75084 11.95705,-2.40913 8.80713,-0.63142 11.76753,-1.48506 14.96168,-4.31433 10.44896,-9.2553 9.02093,-22.78119 -3.16616,-29.98948 l -2.5698,-1.51997 -11.46528,-0.1696 -11.46528,-0.16962 -0.57285,1.49596 c -0.31508,0.82274 -4.93008,17.49034 -10.25555,37.03905 -5.32544,19.54875 -10.73178,39.07956 -12.01406,43.40181 -2.54895,8.59191 -3.74021,10.50807 -7.17892,11.54733 -1.96378,0.59351 -17.4602,1.06522 -21.77629,0.66287 z"
       id="path3756"
       inkscape:connector-curvature="0" />
    <path
       style="fill:#ffffff;stroke-width:0.52883643"
       d="m 142.53153,253.40573 c -0.41016,-1.07556 6.28888,-26.73611 21.11164,-80.86751 9.45224,-34.51882 10.25815,-37.0152 12.30545,-38.11777 2.57782,-1.38829 10.66163,-1.80585 29.4032,-1.51889 20.63858,0.316 22.06431,0.49457 28.67534,3.59121 10.29344,4.82152 19.58436,15.25628 23.68357,26.59933 1.32722,3.67253 1.40064,4.391 1.39901,13.69009 -10e-4,9.38205 -0.068,10.01267 -1.50554,14.32334 -4.18339,12.54392 -10.68152,20.99217 -20.79858,27.04038 -7.23466,4.32502 -12.39795,5.227 -30.663,5.35651 -17.57003,0.12465 -16.3427,0.25292 -16.3427,-1.70882 0,-1.81973 3.2062,-13.99307 4.5457,-17.25906 1.16036,-2.82931 3.13979,-5.32868 4.97758,-6.28498 0.94631,-0.49246 4.86883,-1.11775 9.96156,-1.58799 10.70696,-0.98864 13.07867,-1.83198 17.10878,-6.0837 4.11785,-4.3442 5.29964,-7.11966 5.30958,-12.46944 0.005,-3.57034 -0.22326,-4.71755 -1.44828,-7.22776 -1.59487,-3.26799 -5.14852,-6.9255 -8.83163,-9.08976 -2.33772,-1.37368 -2.49655,-1.39073 -13.95765,-1.49934 l -11.59306,-0.10975 -0.95097,3.12791 c -0.52304,1.72037 -4.7516,16.97383 -9.39683,33.89661 -14.11694,51.42879 -14.43953,52.47195 -16.9472,54.80463 -1.77957,1.65544 -5.9319,2.19971 -16.88311,2.21288 -7.54041,0.009 -8.89353,-0.11161 -9.16286,-0.81801 z"
       id="path3758"
       inkscape:connector-curvature="0" />
    <path
       style="fill:#ffffff;stroke-width:0.52883643"
       d="m 275.75467,253.65493 c -4.02846,-0.79463 -8.00372,-3.11591 -11.46126,-6.6926 -3.63027,-3.75534 -5.67587,-7.46979 -6.4795,-11.7655 -0.68374,-3.65518 -0.666,-10.77918 0.0345,-13.83833 1.68458,-7.35662 7.78484,-14.98818 14.51346,-18.15667 l 3.58535,-1.68832 16.89343,-0.46428 c 17.55005,-0.48231 30.01396,-0.36579 30.66235,0.28655 0.60645,0.61023 -2.46142,10.29398 -4.06964,12.84585 -2.66575,4.22982 -4.18068,4.66194 -17.607,5.02219 -11.93849,0.32032 -13.3887,0.58539 -14.48545,2.64759 -0.92433,1.73796 -0.64108,4.54001 0.57043,5.64329 1.04513,0.95178 2.14525,1.0106 18.89758,1.0106 14.20768,0 17.96143,-0.14491 18.65025,-0.72024 0.97425,-0.81361 4.00336,-9.86178 7.1292,-21.2953 4.11683,-15.0584 4.15992,-16.60083 0.48075,-17.21017 -1.23621,-0.20472 -13.75346,-0.57979 -27.81608,-0.83346 -14.06262,-0.25352 -26.48448,-0.69482 -27.60418,-0.9804 -2.64872,-0.67558 -4.72442,-2.72593 -6.16055,-6.08534 -1.34435,-3.14463 -1.22193,-5.8911 0.61317,-13.75673 l 1.1194,-4.79799 37.65036,0.29855 37.65035,0.29853 4.0012,2.30308 c 7.08325,4.07711 11.57049,10.29241 12.33804,17.08948 0.83976,7.43665 -0.27176,13.62614 -6.68143,37.20206 -6.3647,23.41089 -7.9543,27.06109 -13.68797,31.43173 l -3.65352,2.78497 -31.3674,-0.058 c -17.25208,-0.0318 -32.4242,-0.26661 -33.71582,-0.52126 z"
       id="path3760"
       inkscape:connector-curvature="0" />
    <path
       style="fill:#ffffff;stroke-width:0.52883643"
       d="m 363.83403,254.26099 c -2.07561,-0.52556 -2.68035,-1.29571 -2.6915,-3.42763 -0.01,-1.85016 4.229,-18.57861 14.66342,-57.87109 l 7.74824,-29.1772 8.16412,-0.42472 c 12.8311,-0.66747 38.40693,-0.10536 43.48541,0.95608 10.57158,2.20914 21.93628,10.14628 27.85171,19.45167 5.6133,8.8301 7.84966,21.1502 5.93301,32.6847 -1.57091,9.45362 -8.44768,33.70692 -10.2259,36.06504 -1.20148,1.59325 -5.29504,2.24925 -13.80594,2.21238 -11.54217,-0.05 -13.55078,-0.82984 -12.89156,-5.005 0.18422,-1.16708 1.95206,-8.56748 3.92845,-16.44535 5.77793,-23.03063 6.21936,-26.50103 3.97037,-31.21519 -1.53548,-3.21858 -5.83767,-7.57977 -9.02529,-9.14913 -2.66528,-1.31218 -3.51256,-1.43792 -11.17104,-1.65809 -4.55791,-0.1309 -9.5822,-0.0378 -11.16514,0.20711 l -2.87806,0.4452 -1.24911,3.97453 c -0.68699,2.18595 -3.84444,13.52338 -7.01654,25.19429 -6.17737,22.72801 -7.47136,27.06651 -8.93946,29.97295 -1.62047,3.208 -2.33027,3.39889 -13.15081,3.53657 -5.36407,0.0681 -10.55455,-0.0789 -11.53438,-0.32702 z"
       id="path3762"
       inkscape:connector-curvature="0" />
    <path
       style="fill:#ffffff;stroke-width:0.52883643"
       d="m 501.36521,254.24237 c -8.73792,-0.32246 -9.37751,-0.41908 -12.09693,-1.82739 -4.2857,-2.21949 -8.65181,-6.90187 -10.92285,-11.71411 -1.72568,-3.65655 -1.90695,-4.46505 -1.88049,-8.38631 0.0148,-2.38682 0.53501,-6.84624 1.15313,-9.90984 2.36415,-11.71774 9.5447,-36.73017 11.8701,-41.34796 3.06355,-6.08358 8.76157,-11.34957 15.83092,-14.63058 6.80098,-3.15644 7.00802,-3.17458 35.84843,-3.14001 l 26.35916,0.0315 3.61316,2.03667 c 10.58789,5.96826 15.06117,14.63555 13.57445,26.30134 -1.32666,10.40973 -4.75741,19.10291 -9.08359,23.01697 -4.57854,4.14234 -4.88119,4.18584 -30.77025,4.42294 -12.4664,0.11428 -23.70163,0.0512 -24.96712,-0.13956 -2.25433,-0.34016 -2.29413,-0.38123 -1.96878,-2.03009 0.9656,-4.89303 3.06137,-10.47011 4.46545,-11.88301 2.22338,-2.23734 4.57242,-2.74959 15.35086,-3.34753 15.00674,-0.83249 16.75998,-1.4362 17.62361,-6.06863 0.38087,-2.04297 -0.17624,-3.4929 -2.16947,-5.64629 l -1.28689,-1.39029 -16.70472,0.25739 -16.70472,0.25739 -1.71463,1.63613 c -2.09728,2.00126 -3.19455,4.8618 -6.44808,16.80986 -3.3025,12.1279 -4.07401,16.83963 -3.09419,18.89676 1.36049,2.85647 2.23531,2.94003 33.39857,3.18972 32.19646,0.25797 34.00334,0.35228 34.00334,1.7752 0,1.68758 -4.2727,16.10441 -5.35139,18.05652 -1.86887,3.38215 -4.02908,4.38804 -10.38166,4.8342 -6.63629,0.46606 -44.34786,0.42617 -57.54542,-0.0611 z"
       id="path3764"
       inkscape:connector-curvature="0" />
    <path
       style="fill:#ffffff;stroke-width:0.52883643"
       d="m 579.03284,253.90485 c 0.15731,-0.54817 2.80942,-10.66492 5.89386,-22.4817 10.56019,-40.4575 22.96861,-87.26539 24.02202,-90.61775 1.26785,-4.03468 2.9403,-6.73601 4.65921,-7.52543 1.84955,-0.84945 10.51614,-1.26352 17.05629,-0.81495 6.50838,0.44638 7.96423,1.16357 7.88731,3.88531 -0.0778,2.75241 -18.71598,72.6489 -23.58337,88.44164 -2.85239,9.25485 -4.14304,11.8598 -8.00212,16.15102 -6.80581,7.56789 -15.96012,12.52058 -25.13067,13.59628 -2.85724,0.33515 -3.06698,0.28775 -2.80253,-0.63442 z"
       id="path3782"
       inkscape:connector-curvature="0" />
    <path
       style="fill:#ffffff;stroke-width:0.52883643"
       d="m 142.53002,253.40183 c -0.3821,-1.002 2.80385,-13.43365 14.94536,-58.31759 13.20343,-48.80941 15.50767,-56.73748 17.28249,-59.46323 1.56075,-2.39693 3.73071,-2.60575 26.9037,-2.58909 15.63631,0.012 22.48934,0.20532 24.7776,0.70122 1.73969,0.37713 5.65404,1.89364 8.69852,3.37004 5.06468,2.45605 6.00613,3.16379 11.07085,8.32233 6.01786,6.12938 9.04389,10.79099 11.46806,17.66659 1.1864,3.36495 1.39663,4.95999 1.5945,12.09863 0.19605,7.06928 0.0707,8.89233 -0.89388,12.99709 -1.50517,6.40615 -5.91508,15.39116 -9.894,20.1588 -5.32532,6.3809 -13.95352,12.1152 -20.78046,13.81057 -3.37404,0.83788 -28.81017,1.85381 -35.13513,1.40328 -2.72293,-0.19401 -2.76771,-0.22466 -2.76771,-1.89896 0,-2.01685 3.29407,-14.15121 4.80917,-17.71557 2.29321,-5.39493 4.05537,-6.29308 14.28582,-7.28145 4.40737,-0.4258 9.25084,-1.13616 10.76323,-1.57857 3.83406,-1.12162 8.07581,-5.11207 10.3268,-9.71496 1.50451,-3.0765 1.72124,-4.04151 1.68861,-7.51801 -0.0601,-6.39004 -2.96844,-11.17925 -9.3287,-15.36114 l -3.27745,-2.15495 h -11.64304 -11.64304 l -4.02101,14.45597 c -2.21158,7.95079 -7.23954,26.15339 -11.17324,40.45022 -8.6548,31.45517 -9.4232,33.86167 -11.55113,36.17514 -2.14198,2.32872 -5.05826,2.80909 -17.07796,2.81318 -7.79288,0.003 -9.15635,-0.1172 -9.42796,-0.82954 z"
       id="path3788"
       inkscape:connector-curvature="0" />
    <path
       style="fill:#ffffff;stroke-width:0.52883643"
       d="m 154.52026,196.46392 c -0.0772,-1.3766 12.33896,-47.64264 14.80471,-55.16653 1.87218,-5.71271 4.04618,-8.59062 7.82255,-10.35537 2.23781,-1.04574 3.41873,-1.11859 20.82375,-1.28432 11.03782,-0.10509 20.38501,0.0536 23.26395,0.39524 4.76187,0.56497 12.15673,2.50969 11.61525,3.05462 -0.15435,0.15502 -1.42263,-0.0941 -2.81869,-0.55376 -5.46038,-1.7982 -10.22061,-2.14923 -29.4246,-2.16968 -21.58423,-0.0238 -22.58121,0.11427 -26.43903,3.63963 -2.22171,2.03026 -2.51925,2.63625 -4.45489,9.07202 -1.14081,3.79304 -4.81312,16.92279 -8.16072,29.17721 -6.41867,23.49658 -6.96569,25.37831 -7.03228,24.19094 z"
       id="path3790"
       inkscape:connector-curvature="0" />
    <path
       style="fill:#ffffff;stroke-width:0.52883643"
       d="m 227.04742,133.45163 c -0.45727,-0.46015 -4.42284,-0.80038 -10.45555,-0.89711 -2.80648,-0.045 -5.2974,-0.28626 -5.53543,-0.536 -0.23982,-0.25143 2.8599,-0.32871 6.94779,-0.17287 7.22874,0.27553 11.0615,0.88744 9.9371,1.58672 -0.31041,0.19312 -0.71264,0.20176 -0.89391,0.0178 z"
       id="path3792"
       inkscape:connector-curvature="0" />
    <path
       style="fill:#ffffff;stroke-width:0.52883643"
       d="m 142.52325,253.38406 c -0.39214,-1.02833 3.34964,-15.632 15.42115,-60.18651 11.54419,-42.6083 14.76198,-53.8137 16.2156,-56.46772 2.00885,-3.66774 2.31776,-3.70973 27.23795,-3.70297 24.96483,0.005 25.47655,0.0676 33.55599,3.99021 10.28718,4.99442 19.20121,15.39268 23.17464,27.03323 0.83608,2.44945 0.99594,4.49293 0.99594,12.73189 0,8.75385 -0.13043,10.22885 -1.20619,13.65246 -1.84671,5.87664 -6.03375,13.81551 -9.45304,17.92358 -5.30659,6.37548 -13.9722,12.12828 -20.76253,13.78351 -3.81151,0.92912 -29.82208,2.05824 -34.87154,1.51377 -2.99117,-0.32249 -3.0313,-0.3493 -3.0313,-2.02462 0,-2.1021 3.30978,-14.38765 4.77259,-17.71533 2.34097,-5.32539 4.07881,-6.22476 14.05874,-7.27571 9.59729,-1.01066 11.10206,-1.34071 14.05691,-3.08324 9.25729,-5.45922 11.71058,-17.59637 5.27336,-26.08903 -0.7943,-1.0479 -2.99773,-3.02135 -4.89648,-4.38541 l -3.45226,-2.48006 -11.9138,-0.1598 -11.9138,-0.15978 -10.71463,38.8858 c -13.09627,47.52929 -13.79678,49.81568 -15.9949,52.20602 -2.18647,2.37768 -5.03283,2.85273 -17.11767,2.8568 -7.87369,0.003 -9.15447,-0.11241 -9.43473,-0.84729 z"
       id="path3794"
       inkscape:connector-curvature="0" />
    <path
       style="fill:#ffffff;stroke-width:0.52883643"
       d="m 142.53884,253.42494 c -0.45197,-1.18516 3.5485,-16.76733 17.29325,-67.35911 9.36618,-34.47515 12.94426,-46.8124 14.28742,-49.26334 2.06175,-3.76212 2.24807,-3.78768 27.54206,-3.77522 15.86501,0.009 22.96362,0.19996 25.04119,0.67827 1.5947,0.36703 5.30773,1.84688 8.25118,3.28856 10.31267,5.05108 19.20845,15.43684 23.17464,27.0562 0.84135,2.4649 0.99455,4.4821 0.98695,12.99713 -0.01,9.61272 -0.0757,10.27054 -1.45181,14.20813 -2.66748,7.63298 -6.38397,14.22587 -10.64624,18.88603 -4.81901,5.26887 -13.28562,10.53569 -19.26254,11.98269 -3.90579,0.94555 -30.65938,2.16783 -35.18731,1.60755 -2.70274,-0.33443 -2.76771,-0.38301 -2.76771,-2.07058 0,-2.12616 3.29956,-14.39474 4.77259,-17.74569 2.31075,-5.25665 4.09751,-6.21398 13.52744,-7.24773 10.02644,-1.09913 12.40837,-1.66152 15.28826,-3.60945 2.98803,-2.02111 6.16762,-6.11076 7.26286,-9.34165 0.43799,-1.292 0.79632,-3.84931 0.79632,-5.68289 0,-6.35833 -2.81416,-11.11421 -9.2257,-15.59116 l -2.6359,-1.84057 -11.92677,-0.1598 -11.9268,-0.15978 -0.25873,1.22086 c -1.10099,5.19575 -22.68674,82.10992 -24.14357,86.02811 -2.19632,5.90705 -4.45843,6.70307 -19.04853,6.70307 -7.97054,0 -9.48177,-0.12558 -9.74259,-0.80947 z"
       id="path3796"
       inkscape:connector-curvature="0" />
    <path
       style="fill:#ffffff;stroke-width:0.52883643"
       d="m 142.54888,253.45126 c -0.43219,-1.13335 2.94194,-14.44023 14.38714,-56.74005 11.63442,-42.99916 15.20727,-55.56731 16.79269,-59.07133 2.14146,-4.73296 1.48993,-4.62536 27.93286,-4.6123 25.78535,0.012 25.84214,0.0207 34.10374,4.31367 8.31131,4.3196 16.10426,12.71678 20.43331,22.01762 2.75732,5.92401 3.37237,9.89157 3.0583,19.72791 -0.2895,9.06149 -1.07575,12.34637 -4.71857,19.71094 -4.25893,8.61006 -9.74362,14.68743 -17.29194,19.16043 -5.52443,3.27371 -8.55043,4.29538 -14.55718,4.91508 -7.12086,0.73462 -28.01958,1.32714 -30.70519,0.87053 -2.03564,-0.34605 -2.18412,-0.4882 -2.18412,-2.09098 0,-2.11944 3.3024,-14.39273 4.77259,-17.73722 1.22752,-2.79242 2.77339,-4.62594 4.79095,-5.68243 0.76572,-0.40093 5.27313,-1.20128 10.01649,-1.77847 9.86522,-1.20047 11.4372,-1.59384 14.27329,-3.5716 6.23369,-4.34709 9.17312,-12.64753 7.06412,-19.9478 -0.96635,-3.34503 -4.56863,-7.74635 -8.70762,-10.63906 l -2.42395,-1.69409 -11.86165,-0.17676 -11.86161,-0.17675 -3.6039,13.17376 c -6.85158,25.04511 -18.21162,65.70927 -19.61184,70.20196 -3.14548,10.09253 -3.42402,10.25039 -18.55997,10.5176 -10.09924,0.17823 -11.23235,0.11041 -11.53794,-0.69088 z"
       id="path3798"
       inkscape:connector-curvature="0" />
    <path
       style="fill:#ffffff;stroke-width:0.52883643"
       d="m 142.54927,253.45229 c -0.43615,-1.14375 3.5351,-16.81426 14.85901,-58.63329 14.54392,-53.71047 15.96231,-58.37643 18.27342,-60.11277 2.24136,-1.68392 8.45466,-2.06414 29.40655,-1.79959 22.378,0.28269 22.80795,0.34485 30.69439,4.44363 8.29291,4.31002 16.09094,12.71635 20.41598,22.0086 2.77318,5.95806 3.36966,9.86089 3.05485,19.98789 -0.22177,7.13153 -0.44666,8.83741 -1.5858,12.02402 -4.03861,11.2972 -9.35288,18.92262 -17.04135,24.45239 -4.02385,2.89408 -10.2124,5.87258 -13.65997,6.57447 -3.64807,0.74271 -31.59204,1.86266 -34.66231,1.38921 -2.38459,-0.36772 -2.50394,-0.46687 -2.50075,-2.07773 0.002,-2.01271 2.58772,-12.0871 4.22044,-16.4563 1.2711,-3.40149 3.71825,-6.55806 5.66022,-7.301 0.68788,-0.26304 5.10569,-0.95302 9.81737,-1.53296 4.71167,-0.57994 9.38263,-1.33383 10.37993,-1.67528 4.10534,-1.40562 8.01082,-5.21175 10.1498,-9.89163 0.88538,-1.93713 1.14362,-3.51417 1.1476,-7.00875 0.005,-4.00905 -0.16765,-4.8234 -1.55402,-7.34173 -1.62721,-2.9561 -6.08446,-7.44216 -8.91642,-8.97405 -1.39958,-0.75708 -3.40642,-0.89482 -13.24044,-0.90883 l -11.59082,-0.0178 -10.65554,38.46087 c -11.6362,42.0005 -13.43335,48.08932 -15.06512,51.0409 -1.90678,3.44899 -3.35872,3.8139 -16.06947,4.03828 -10.09416,0.17824 -11.23247,0.11015 -11.53755,-0.68986 z"
       id="path3800"
       inkscape:connector-curvature="0" />
    <path
       style="fill:#ffffff;stroke-width:0.52883643"
       d="m 218.93684,131.85299 c 0.51293,-0.13449 1.22462,-0.12558 1.58156,0.0209 0.3569,0.1452 -0.0627,0.2553 -0.93261,0.24459 -0.86987,-0.012 -1.1619,-0.12971 -0.64895,-0.26423 z"
       id="path3802"
       inkscape:connector-curvature="0" />
  </g>
</svg>
